<svg xmlns="http://www.w3.org/2000/svg"  viewBox="0 0 32 32" width="64px" height="64px"><path d="M25.915,13.739c-0.352-0.802-1.074-1.42-1.934-1.654c-0.307-0.083-0.615-0.145-0.922-0.219	c0.081-0.84,0.112-1.685,0.044-2.523c-0.302-3.687-3.397-6.589-7.039-6.607c-0.007,0-0.111-0.001-0.119,0	c-3.651,0.018-6.747,2.92-7.049,6.607c-0.068,0.836-0.037,1.68,0.044,2.523c-0.307,0.074-0.615,0.136-0.922,0.219	c-0.859,0.234-1.582,0.852-1.935,1.654c-1.822,4.154-1.822,8.367,0.001,12.522c0.352,0.802,1.074,1.42,1.934,1.654	c2.648,0.721,5.314,1.081,7.981,1.081s5.333-0.36,7.981-1.081c0.859-0.234,1.582-0.852,1.935-1.654	C27.738,22.106,27.738,17.894,25.915,13.739z M10.891,9.506c0.218-2.662,2.442-4.757,5.154-4.771	c2.622,0.013,4.847,2.108,5.064,4.77c0.053,0.649,0.035,1.302-0.017,1.954c-3.389-0.585-6.796-0.585-10.185,0	C10.856,10.806,10.838,10.153,10.891,9.506z M17,21.723V23c0,0.552-0.447,1-1,1s-1-0.448-1-1v-1.277c-0.595-0.346-1-0.984-1-1.723	c0-1.105,0.895-2,2-2s2,0.895,2,2C18,20.738,17.595,21.376,17,21.723z"/></svg>